<svg t="1653752730028" class="icon" viewBox="0 0 1024 1024" version="1.1" xmlns="http://www.w3.org/2000/svg" p-id="16509" width="200" height="200"><path d="M360.533333 646.4c-2.133333 0-2.133333 0 0 0-168.533333 0-305.066667-136.533333-305.066666-302.933333 0-81.066667 29.866667-155.733333 87.466666-213.333334C198.4 74.666667 275.2 42.666667 356.266667 42.666667c166.4 0 302.933333 136.533333 302.933333 302.933333 0 81.066667-29.866667 155.733333-87.466667 213.333333-57.6 55.466667-132.266667 87.466667-211.2 87.466667zM354.133333 85.333333c-68.266667 0-132.266667 25.6-181.333333 74.666667s-74.666667 113.066667-74.666667 183.466667c0 142.933333 117.333333 260.266667 260.266667 260.266666h2.133333c68.266667 0 132.266667-25.6 181.333334-74.666666s74.666667-113.066667 74.666666-183.466667C614.4 202.666667 497.066667 87.466667 354.133333 85.333333zM940.8 868.266667l-83.2 83.2c-10.666667 10.666667-25.6 10.666667-36.266667 0L659.2 789.333333c-10.666667-10.666667-10.666667-25.6 0-36.266666l83.2-83.2c10.666667-10.666667 25.6-10.666667 36.266667 0l164.266666 164.266666c6.4 8.533333 6.4 25.6-2.133333 34.133334z" fill="#24AA7D" p-id="16510"></path><path d="M840.533333 970.666667c-8.533333 0-19.2-4.266667-25.6-10.666667l-164.266666-164.266667c-14.933333-14.933333-14.933333-36.266667 0-51.2l83.2-83.2c12.8-12.8 36.266667-12.8 51.2 0l164.266666 164.266667c14.933333 14.933333 14.933333 36.266667 0 51.2l-85.333333 83.2c-6.4 6.4-14.933333 10.666667-23.466667 10.666667z m-81.066666-296.533334c-4.266667 0-6.4 2.133333-10.666667 4.266667l-83.2 83.2c-6.4 6.4-6.4 14.933333 0 21.333333l164.266667 164.266667c6.4 6.4 14.933333 6.4 21.333333 0l83.2-83.2c6.4-6.4 6.4-14.933333 0-21.333333L768 678.4c-2.133333-4.266667-6.4-4.266667-8.533333-4.266667z" fill="#24AA7D" p-id="16511"></path><path d="M842.666667 834.133333l-72.533334-72.533333c-2.133333-2.133333-2.133333-6.4 0-8.533333l10.666667-10.666667c2.133333-2.133333 6.4-2.133333 8.533333 0l72.533334 72.533333c2.133333 2.133333 2.133333 6.4 0 8.533334l-10.666667 10.666666c-2.133333 2.133333-6.4 2.133333-8.533333 0z" fill="#FCFCFC" p-id="16512"></path><path d="M697.6 733.866667c-6.4 0-10.666667-2.133333-14.933333-6.4l-155.733334-155.733334c-8.533333-8.533333-8.533333-21.333333 0-29.866666s21.333333-8.533333 29.866667 0l155.733333 155.733333c8.533333 8.533333 8.533333 21.333333 0 29.866667-4.266667 4.266667-8.533333 6.4-14.933333 6.4z" fill="#24AA7D" p-id="16513"></path><path d="M356.266667 345.6m-221.866667 0a221.866667 221.866667 0 1 0 443.733333 0 221.866667 221.866667 0 1 0-443.733333 0Z" fill="#24AA7D" p-id="16514"></path><path d="M356.266667 578.133333c-128 0-232.533333-104.533333-232.533334-232.533333s104.533333-234.666667 232.533334-234.666667 232.533333 104.533333 232.533333 232.533334-104.533333 234.666667-232.533333 234.666666z m0-445.866666c-117.333333 0-211.2 96-211.2 211.2s96 211.2 211.2 211.2 211.2-96 211.2-211.2-93.866667-211.2-211.2-211.2z" fill="#24AA7D" p-id="16515"></path><path d="M392.533333 206.933333m-23.466666 0a23.466667 23.466667 0 1 0 46.933333 0 23.466667 23.466667 0 1 0-46.933333 0Z" fill="#FCFCFC" p-id="16516"></path></svg>